<mxfile host="Electron" modified="2023-11-05T09:02:21.092Z" agent="Mozilla/5.0 (Windows NT 10.0; Win64; x64) AppleWebKit/537.36 (KHTML, like Gecko) draw.io/22.0.1 Chrome/114.0.5735.289 Electron/25.8.4 Safari/537.36" etag="nzGBfIeXuG6zG6VlR7bA" version="22.0.1" type="device">
  <diagram name="Page-1" id="V5FEJibJbFLJuYnV9K3m">
    <mxGraphModel dx="1833" dy="2948" grid="1" gridSize="10" guides="1" tooltips="1" connect="1" arrows="1" fold="1" page="0" pageScale="1" pageWidth="1100" pageHeight="850" math="0" shadow="0">
      <root>
        <mxCell id="0" />
        <mxCell id="1" parent="0" />
        <mxCell id="FK2mrB6mmfVpWCSHWsBe-84" value="binary search datapath" style="rounded=0;whiteSpace=wrap;html=1;" parent="1" vertex="1">
          <mxGeometry x="1285" y="-700" width="150" height="360" as="geometry" />
        </mxCell>
        <mxCell id="FK2mrB6mmfVpWCSHWsBe-85" value="binary search controller" style="rounded=0;whiteSpace=wrap;html=1;" parent="1" vertex="1">
          <mxGeometry x="1025.01" y="-700" width="150" height="360" as="geometry" />
        </mxCell>
        <mxCell id="FK2mrB6mmfVpWCSHWsBe-87" value="" style="triangle;whiteSpace=wrap;html=1;rotation=-90;" parent="1" vertex="1">
          <mxGeometry x="1085.01" y="-365.62" width="30" height="20" as="geometry" />
        </mxCell>
        <mxCell id="FK2mrB6mmfVpWCSHWsBe-88" value="" style="triangle;whiteSpace=wrap;html=1;rotation=-90;" parent="1" vertex="1">
          <mxGeometry x="1345" y="-365.62" width="30" height="20" as="geometry" />
        </mxCell>
        <mxCell id="FK2mrB6mmfVpWCSHWsBe-92" style="edgeStyle=orthogonalEdgeStyle;rounded=0;orthogonalLoop=1;jettySize=auto;html=1;endArrow=classic;endFill=1;exitX=1;exitY=0.5;exitDx=0;exitDy=0;" parent="1" source="FK2mrB6mmfVpWCSHWsBe-89" edge="1">
          <mxGeometry relative="1" as="geometry">
            <mxPoint x="925" y="-600" as="sourcePoint" />
            <mxPoint x="1025" y="-600" as="targetPoint" />
            <Array as="points" />
          </mxGeometry>
        </mxCell>
        <mxCell id="FK2mrB6mmfVpWCSHWsBe-89" value="start / key 3" style="text;html=1;strokeColor=none;fillColor=none;align=center;verticalAlign=middle;whiteSpace=wrap;rounded=0;" parent="1" vertex="1">
          <mxGeometry x="845" y="-610" width="70" height="20" as="geometry" />
        </mxCell>
        <mxCell id="CEpWDTSw6eDSpH7H5YZw-1" style="edgeStyle=orthogonalEdgeStyle;rounded=0;orthogonalLoop=1;jettySize=auto;html=1;entryX=0;entryY=0.75;entryDx=0;entryDy=0;" edge="1" parent="1" source="FK2mrB6mmfVpWCSHWsBe-90" target="FK2mrB6mmfVpWCSHWsBe-85">
          <mxGeometry relative="1" as="geometry" />
        </mxCell>
        <mxCell id="FK2mrB6mmfVpWCSHWsBe-90" value="reset / key 0" style="text;html=1;strokeColor=none;fillColor=none;align=center;verticalAlign=middle;whiteSpace=wrap;rounded=0;" parent="1" vertex="1">
          <mxGeometry x="845" y="-437.53" width="70" height="14.07" as="geometry" />
        </mxCell>
        <mxCell id="FK2mrB6mmfVpWCSHWsBe-104" value="" style="edgeStyle=none;orthogonalLoop=1;jettySize=auto;html=1;rounded=0;" parent="1" edge="1">
          <mxGeometry width="80" relative="1" as="geometry">
            <mxPoint x="1175.01" y="-437.53" as="sourcePoint" />
            <mxPoint x="1285.01" y="-437.53" as="targetPoint" />
            <Array as="points" />
          </mxGeometry>
        </mxCell>
        <mxCell id="FK2mrB6mmfVpWCSHWsBe-105" value="" style="edgeStyle=none;orthogonalLoop=1;jettySize=auto;html=1;rounded=0;" parent="1" edge="1">
          <mxGeometry width="80" relative="1" as="geometry">
            <mxPoint x="1175.01" y="-477.53" as="sourcePoint" />
            <mxPoint x="1285.01" y="-477.53" as="targetPoint" />
            <Array as="points" />
          </mxGeometry>
        </mxCell>
        <mxCell id="FK2mrB6mmfVpWCSHWsBe-106" value="" style="edgeStyle=none;orthogonalLoop=1;jettySize=auto;html=1;rounded=0;" parent="1" edge="1">
          <mxGeometry width="80" relative="1" as="geometry">
            <mxPoint x="1174.99" y="-527.53" as="sourcePoint" />
            <mxPoint x="1284.99" y="-527.53" as="targetPoint" />
            <Array as="points" />
          </mxGeometry>
        </mxCell>
        <mxCell id="FK2mrB6mmfVpWCSHWsBe-120" value="done" style="text;html=1;align=center;verticalAlign=middle;resizable=0;points=[];autosize=1;strokeColor=none;fillColor=none;" parent="1" vertex="1">
          <mxGeometry x="1189.99" y="-690" width="50" height="30" as="geometry" />
        </mxCell>
        <mxCell id="FK2mrB6mmfVpWCSHWsBe-121" value="" style="edgeStyle=none;orthogonalLoop=1;jettySize=auto;html=1;rounded=0;" parent="1" edge="1">
          <mxGeometry width="80" relative="1" as="geometry">
            <mxPoint x="1175" y="-690" as="sourcePoint" />
            <mxPoint x="1285" y="-690" as="targetPoint" />
            <Array as="points" />
          </mxGeometry>
        </mxCell>
        <mxCell id="FK2mrB6mmfVpWCSHWsBe-129" value="" style="endArrow=none;html=1;rounded=0;" parent="1" edge="1">
          <mxGeometry width="50" height="50" relative="1" as="geometry">
            <mxPoint x="955" y="-365.62" as="sourcePoint" />
            <mxPoint x="965" y="-395.62" as="targetPoint" />
          </mxGeometry>
        </mxCell>
        <mxCell id="FK2mrB6mmfVpWCSHWsBe-131" value="8" style="text;html=1;align=center;verticalAlign=middle;resizable=0;points=[];autosize=1;strokeColor=none;fillColor=none;" parent="1" vertex="1">
          <mxGeometry x="945" y="-365.62" width="30" height="30" as="geometry" />
        </mxCell>
        <mxCell id="CEpWDTSw6eDSpH7H5YZw-5" style="edgeStyle=orthogonalEdgeStyle;rounded=0;orthogonalLoop=1;jettySize=auto;html=1;exitX=0.267;exitY=1.004;exitDx=0;exitDy=0;exitPerimeter=0;" edge="1" parent="1" source="CEpWDTSw6eDSpH7H5YZw-3">
          <mxGeometry relative="1" as="geometry">
            <mxPoint x="1065" y="-790" as="sourcePoint" />
            <mxPoint x="1065" y="-700" as="targetPoint" />
          </mxGeometry>
        </mxCell>
        <mxCell id="CEpWDTSw6eDSpH7H5YZw-3" value="32 x 8 ROM" style="whiteSpace=wrap;html=1;" vertex="1" parent="1">
          <mxGeometry x="1025" y="-910" width="150.01" height="110" as="geometry" />
        </mxCell>
        <mxCell id="CEpWDTSw6eDSpH7H5YZw-6" value="rom_out" style="text;html=1;align=center;verticalAlign=middle;resizable=0;points=[];autosize=1;strokeColor=none;fillColor=none;" vertex="1" parent="1">
          <mxGeometry x="985" y="-760" width="70" height="30" as="geometry" />
        </mxCell>
        <mxCell id="CEpWDTSw6eDSpH7H5YZw-7" style="edgeStyle=orthogonalEdgeStyle;rounded=0;orthogonalLoop=1;jettySize=auto;html=1;exitX=0.46;exitY=-0.001;exitDx=0;exitDy=0;entryX=0.801;entryY=1;entryDx=0;entryDy=0;entryPerimeter=0;exitPerimeter=0;" edge="1" parent="1" source="FK2mrB6mmfVpWCSHWsBe-84" target="CEpWDTSw6eDSpH7H5YZw-3">
          <mxGeometry relative="1" as="geometry">
            <mxPoint x="1185" y="-730" as="sourcePoint" />
            <mxPoint x="1145" y="-790" as="targetPoint" />
          </mxGeometry>
        </mxCell>
        <mxCell id="CEpWDTSw6eDSpH7H5YZw-8" value="" style="endArrow=none;html=1;rounded=0;" edge="1" parent="1">
          <mxGeometry width="50" height="50" relative="1" as="geometry">
            <mxPoint x="1055" y="-738" as="sourcePoint" />
            <mxPoint x="1075" y="-758" as="targetPoint" />
          </mxGeometry>
        </mxCell>
        <mxCell id="CEpWDTSw6eDSpH7H5YZw-9" value="8" style="text;html=1;align=center;verticalAlign=middle;resizable=0;points=[];autosize=1;strokeColor=none;fillColor=none;" vertex="1" parent="1">
          <mxGeometry x="1065" y="-760" width="30" height="30" as="geometry" />
        </mxCell>
        <mxCell id="CEpWDTSw6eDSpH7H5YZw-10" value="5" style="text;html=1;align=center;verticalAlign=middle;resizable=0;points=[];autosize=1;strokeColor=none;fillColor=none;" vertex="1" parent="1">
          <mxGeometry x="1325" y="-740" width="30" height="30" as="geometry" />
        </mxCell>
        <mxCell id="CEpWDTSw6eDSpH7H5YZw-11" value="" style="endArrow=none;html=1;rounded=0;" edge="1" parent="1">
          <mxGeometry width="50" height="50" relative="1" as="geometry">
            <mxPoint x="1345" y="-710" as="sourcePoint" />
            <mxPoint x="1365" y="-730" as="targetPoint" />
          </mxGeometry>
        </mxCell>
        <mxCell id="CEpWDTSw6eDSpH7H5YZw-12" value="read_addr" style="text;html=1;align=center;verticalAlign=middle;resizable=0;points=[];autosize=1;strokeColor=none;fillColor=none;" vertex="1" parent="1">
          <mxGeometry x="1285" y="-780" width="80" height="30" as="geometry" />
        </mxCell>
        <mxCell id="CEpWDTSw6eDSpH7H5YZw-13" value="count_zero" style="text;html=1;align=center;verticalAlign=middle;resizable=0;points=[];autosize=1;strokeColor=none;fillColor=none;" vertex="1" parent="1">
          <mxGeometry x="1189.99" y="-360" width="80" height="30" as="geometry" />
        </mxCell>
        <mxCell id="CEpWDTSw6eDSpH7H5YZw-15" value="" style="edgeStyle=none;orthogonalLoop=1;jettySize=auto;html=1;rounded=0;" edge="1" parent="1">
          <mxGeometry width="80" relative="1" as="geometry">
            <mxPoint x="1174.99" y="-580" as="sourcePoint" />
            <mxPoint x="1284.99" y="-580" as="targetPoint" />
            <Array as="points" />
          </mxGeometry>
        </mxCell>
        <mxCell id="CEpWDTSw6eDSpH7H5YZw-16" value="" style="edgeStyle=none;orthogonalLoop=1;jettySize=auto;html=1;rounded=0;startArrow=classic;startFill=1;endArrow=none;endFill=0;" edge="1" parent="1">
          <mxGeometry width="80" relative="1" as="geometry">
            <mxPoint x="1174.99" y="-355.73" as="sourcePoint" />
            <mxPoint x="1284.99" y="-355.73" as="targetPoint" />
            <Array as="points" />
          </mxGeometry>
        </mxCell>
        <mxCell id="CEpWDTSw6eDSpH7H5YZw-17" value="" style="edgeStyle=none;orthogonalLoop=1;jettySize=auto;html=1;rounded=0;startArrow=classic;startFill=1;endArrow=none;endFill=0;" edge="1" parent="1">
          <mxGeometry width="80" relative="1" as="geometry">
            <mxPoint x="1175.01" y="-390" as="sourcePoint" />
            <mxPoint x="1285.01" y="-390" as="targetPoint" />
            <Array as="points" />
          </mxGeometry>
        </mxCell>
        <mxCell id="CEpWDTSw6eDSpH7H5YZw-18" value="addr" style="text;html=1;align=center;verticalAlign=middle;resizable=0;points=[];autosize=1;strokeColor=none;fillColor=none;" vertex="1" parent="1">
          <mxGeometry x="1204.99" y="-390" width="50" height="30" as="geometry" />
        </mxCell>
        <mxCell id="CEpWDTSw6eDSpH7H5YZw-20" value="5" style="text;html=1;align=center;verticalAlign=middle;resizable=0;points=[];autosize=1;strokeColor=none;fillColor=none;" vertex="1" parent="1">
          <mxGeometry x="1185" y="-390" width="30" height="30" as="geometry" />
        </mxCell>
        <mxCell id="CEpWDTSw6eDSpH7H5YZw-21" value="" style="endArrow=none;html=1;rounded=0;" edge="1" parent="1">
          <mxGeometry width="50" height="50" relative="1" as="geometry">
            <mxPoint x="1195" y="-380" as="sourcePoint" />
            <mxPoint x="1205" y="-400" as="targetPoint" />
          </mxGeometry>
        </mxCell>
        <mxCell id="CEpWDTSw6eDSpH7H5YZw-22" value="decr" style="text;html=1;align=center;verticalAlign=middle;resizable=0;points=[];autosize=1;strokeColor=none;fillColor=none;" vertex="1" parent="1">
          <mxGeometry x="1204.99" y="-437.53" width="50" height="30" as="geometry" />
        </mxCell>
        <mxCell id="CEpWDTSw6eDSpH7H5YZw-23" value="load_regs" style="text;html=1;align=center;verticalAlign=middle;resizable=0;points=[];autosize=1;strokeColor=none;fillColor=none;" vertex="1" parent="1">
          <mxGeometry x="1189.99" y="-482" width="80" height="30" as="geometry" />
        </mxCell>
        <mxCell id="CEpWDTSw6eDSpH7H5YZw-24" value="below" style="text;html=1;align=center;verticalAlign=middle;resizable=0;points=[];autosize=1;strokeColor=none;fillColor=none;" vertex="1" parent="1">
          <mxGeometry x="1204.97" y="-530" width="50" height="30" as="geometry" />
        </mxCell>
        <mxCell id="CEpWDTSw6eDSpH7H5YZw-26" value="above" style="text;html=1;align=center;verticalAlign=middle;resizable=0;points=[];autosize=1;strokeColor=none;fillColor=none;" vertex="1" parent="1">
          <mxGeometry x="1199.99" y="-580" width="60" height="30" as="geometry" />
        </mxCell>
        <mxCell id="CEpWDTSw6eDSpH7H5YZw-28" value="" style="edgeStyle=none;orthogonalLoop=1;jettySize=auto;html=1;rounded=0;" edge="1" parent="1">
          <mxGeometry width="80" relative="1" as="geometry">
            <mxPoint x="1174.99" y="-640" as="sourcePoint" />
            <mxPoint x="1284.99" y="-640" as="targetPoint" />
            <Array as="points" />
          </mxGeometry>
        </mxCell>
        <mxCell id="CEpWDTSw6eDSpH7H5YZw-29" value="found" style="text;html=1;align=center;verticalAlign=middle;resizable=0;points=[];autosize=1;strokeColor=none;fillColor=none;" vertex="1" parent="1">
          <mxGeometry x="1204.99" y="-640" width="50" height="30" as="geometry" />
        </mxCell>
        <mxCell id="CEpWDTSw6eDSpH7H5YZw-30" value="" style="triangle;whiteSpace=wrap;html=1;rotation=-90;" vertex="1" parent="1">
          <mxGeometry x="1080.01" y="-830" width="40" height="20" as="geometry" />
        </mxCell>
        <mxCell id="CEpWDTSw6eDSpH7H5YZw-65" style="edgeStyle=orthogonalEdgeStyle;rounded=0;orthogonalLoop=1;jettySize=auto;html=1;entryX=0.25;entryY=1;entryDx=0;entryDy=0;" edge="1" parent="1" source="CEpWDTSw6eDSpH7H5YZw-32" target="CEpWDTSw6eDSpH7H5YZw-63">
          <mxGeometry relative="1" as="geometry" />
        </mxCell>
        <mxCell id="CEpWDTSw6eDSpH7H5YZw-32" value="seg7" style="whiteSpace=wrap;html=1;" vertex="1" parent="1">
          <mxGeometry x="1380" y="-1000" width="120" height="60" as="geometry" />
        </mxCell>
        <mxCell id="CEpWDTSw6eDSpH7H5YZw-33" value="" style="edgeStyle=orthogonalEdgeStyle;orthogonalLoop=1;jettySize=auto;html=1;rounded=0;entryX=0.289;entryY=1.096;entryDx=0;entryDy=0;entryPerimeter=0;" edge="1" parent="1" target="CEpWDTSw6eDSpH7H5YZw-34">
          <mxGeometry width="100" relative="1" as="geometry">
            <mxPoint x="1355" y="-690" as="sourcePoint" />
            <mxPoint x="1426" y="-790" as="targetPoint" />
            <Array as="points">
              <mxPoint x="1355" y="-740" />
              <mxPoint x="1425" y="-740" />
            </Array>
          </mxGeometry>
        </mxCell>
        <mxCell id="CEpWDTSw6eDSpH7H5YZw-40" style="edgeStyle=orthogonalEdgeStyle;rounded=0;orthogonalLoop=1;jettySize=auto;html=1;entryX=0.5;entryY=1;entryDx=0;entryDy=0;" edge="1" parent="1" source="CEpWDTSw6eDSpH7H5YZw-34" target="CEpWDTSw6eDSpH7H5YZw-32">
          <mxGeometry relative="1" as="geometry" />
        </mxCell>
        <mxCell id="CEpWDTSw6eDSpH7H5YZw-34" value="MUX" style="shape=trapezoid;perimeter=trapezoidPerimeter;whiteSpace=wrap;html=1;fixedSize=1;" vertex="1" parent="1">
          <mxGeometry x="1405" y="-830" width="70" height="30" as="geometry" />
        </mxCell>
        <mxCell id="CEpWDTSw6eDSpH7H5YZw-36" style="edgeStyle=orthogonalEdgeStyle;rounded=0;orthogonalLoop=1;jettySize=auto;html=1;entryX=0.75;entryY=1;entryDx=0;entryDy=0;" edge="1" parent="1" source="CEpWDTSw6eDSpH7H5YZw-35" target="CEpWDTSw6eDSpH7H5YZw-34">
          <mxGeometry relative="1" as="geometry" />
        </mxCell>
        <mxCell id="CEpWDTSw6eDSpH7H5YZw-35" value="5&#39;bZZZZZ" style="text;html=1;align=center;verticalAlign=middle;resizable=0;points=[];autosize=1;strokeColor=none;fillColor=none;" vertex="1" parent="1">
          <mxGeometry x="1435" y="-740" width="80" height="30" as="geometry" />
        </mxCell>
        <mxCell id="CEpWDTSw6eDSpH7H5YZw-41" value="" style="endArrow=none;html=1;rounded=0;" edge="1" parent="1">
          <mxGeometry width="50" height="50" relative="1" as="geometry">
            <mxPoint x="1465" y="-740" as="sourcePoint" />
            <mxPoint x="1485" y="-760" as="targetPoint" />
          </mxGeometry>
        </mxCell>
        <mxCell id="CEpWDTSw6eDSpH7H5YZw-42" value="5" style="text;html=1;align=center;verticalAlign=middle;resizable=0;points=[];autosize=1;strokeColor=none;fillColor=none;" vertex="1" parent="1">
          <mxGeometry x="1445" y="-870" width="30" height="30" as="geometry" />
        </mxCell>
        <mxCell id="CEpWDTSw6eDSpH7H5YZw-43" value="" style="endArrow=none;html=1;rounded=0;" edge="1" parent="1">
          <mxGeometry width="50" height="50" relative="1" as="geometry">
            <mxPoint x="1430" y="-840" as="sourcePoint" />
            <mxPoint x="1450" y="-860" as="targetPoint" />
          </mxGeometry>
        </mxCell>
        <mxCell id="CEpWDTSw6eDSpH7H5YZw-44" value="loc" style="text;html=1;align=center;verticalAlign=middle;resizable=0;points=[];autosize=1;strokeColor=none;fillColor=none;" vertex="1" parent="1">
          <mxGeometry x="1440" y="-930" width="40" height="30" as="geometry" />
        </mxCell>
        <mxCell id="CEpWDTSw6eDSpH7H5YZw-46" value="hex displays" style="text;html=1;align=center;verticalAlign=middle;resizable=0;points=[];autosize=1;strokeColor=none;fillColor=none;" vertex="1" parent="1">
          <mxGeometry x="1515" y="-1120" width="90" height="30" as="geometry" />
        </mxCell>
        <mxCell id="CEpWDTSw6eDSpH7H5YZw-129" style="edgeStyle=orthogonalEdgeStyle;rounded=0;orthogonalLoop=1;jettySize=auto;html=1;entryX=1;entryY=0.5;entryDx=0;entryDy=0;" edge="1" parent="1" source="CEpWDTSw6eDSpH7H5YZw-48" target="CEpWDTSw6eDSpH7H5YZw-121">
          <mxGeometry relative="1" as="geometry" />
        </mxCell>
        <mxCell id="CEpWDTSw6eDSpH7H5YZw-48" value="SW[9]" style="text;html=1;align=center;verticalAlign=middle;resizable=0;points=[];autosize=1;strokeColor=none;fillColor=none;" vertex="1" parent="1">
          <mxGeometry x="1360" y="-1210" width="60" height="30" as="geometry" />
        </mxCell>
        <mxCell id="CEpWDTSw6eDSpH7H5YZw-51" value="" style="curved=1;endArrow=none;html=1;rounded=0;endFill=0;" edge="1" parent="1">
          <mxGeometry width="50" height="50" relative="1" as="geometry">
            <mxPoint x="1204.99" y="-740" as="sourcePoint" />
            <mxPoint x="1204.99" y="-760" as="targetPoint" />
            <Array as="points">
              <mxPoint x="1194.99" y="-740" />
              <mxPoint x="1194.99" y="-760" />
            </Array>
          </mxGeometry>
        </mxCell>
        <mxCell id="CEpWDTSw6eDSpH7H5YZw-53" value="" style="edgeStyle=none;orthogonalLoop=1;jettySize=auto;html=1;rounded=0;endArrow=none;endFill=0;" edge="1" parent="1">
          <mxGeometry width="100" relative="1" as="geometry">
            <mxPoint x="1204.99" y="-690" as="sourcePoint" />
            <mxPoint x="1204.99" y="-740" as="targetPoint" />
            <Array as="points" />
          </mxGeometry>
        </mxCell>
        <mxCell id="CEpWDTSw6eDSpH7H5YZw-54" value="" style="edgeStyle=orthogonalEdgeStyle;orthogonalLoop=1;jettySize=auto;html=1;rounded=0;entryX=0.75;entryY=1;entryDx=0;entryDy=0;" edge="1" parent="1" target="CEpWDTSw6eDSpH7H5YZw-111">
          <mxGeometry width="100" relative="1" as="geometry">
            <mxPoint x="1205.02" y="-760" as="sourcePoint" />
            <mxPoint x="460" y="-990" as="targetPoint" />
            <Array as="points">
              <mxPoint x="1205" y="-990" />
              <mxPoint x="433" y="-990" />
            </Array>
          </mxGeometry>
        </mxCell>
        <mxCell id="CEpWDTSw6eDSpH7H5YZw-55" value="" style="curved=1;endArrow=none;html=1;rounded=0;endFill=0;" edge="1" parent="1">
          <mxGeometry width="50" height="50" relative="1" as="geometry">
            <mxPoint x="1264.99" y="-680" as="sourcePoint" />
            <mxPoint x="1264.99" y="-700" as="targetPoint" />
            <Array as="points">
              <mxPoint x="1254.99" y="-680" />
              <mxPoint x="1254.99" y="-700" />
            </Array>
          </mxGeometry>
        </mxCell>
        <mxCell id="CEpWDTSw6eDSpH7H5YZw-57" value="" style="endArrow=none;html=1;rounded=0;endFill=0;" edge="1" parent="1">
          <mxGeometry width="50" height="50" relative="1" as="geometry">
            <mxPoint x="1265" y="-640" as="sourcePoint" />
            <mxPoint x="1265" y="-680" as="targetPoint" />
          </mxGeometry>
        </mxCell>
        <mxCell id="CEpWDTSw6eDSpH7H5YZw-58" value="" style="curved=1;endArrow=none;html=1;rounded=0;endFill=0;" edge="1" parent="1">
          <mxGeometry width="50" height="50" relative="1" as="geometry">
            <mxPoint x="1264.99" y="-740" as="sourcePoint" />
            <mxPoint x="1264.99" y="-760" as="targetPoint" />
            <Array as="points">
              <mxPoint x="1254.99" y="-740" />
              <mxPoint x="1254.99" y="-760" />
            </Array>
          </mxGeometry>
        </mxCell>
        <mxCell id="CEpWDTSw6eDSpH7H5YZw-59" value="" style="endArrow=none;html=1;rounded=0;endFill=0;" edge="1" parent="1">
          <mxGeometry width="50" height="50" relative="1" as="geometry">
            <mxPoint x="1265" y="-700" as="sourcePoint" />
            <mxPoint x="1265" y="-740" as="targetPoint" />
          </mxGeometry>
        </mxCell>
        <mxCell id="CEpWDTSw6eDSpH7H5YZw-60" value="" style="endArrow=none;html=1;rounded=0;endFill=0;" edge="1" parent="1">
          <mxGeometry width="50" height="50" relative="1" as="geometry">
            <mxPoint x="1265" y="-760" as="sourcePoint" />
            <mxPoint x="1265" y="-1110" as="targetPoint" />
          </mxGeometry>
        </mxCell>
        <mxCell id="CEpWDTSw6eDSpH7H5YZw-61" value="" style="endArrow=classic;html=1;rounded=0;entryX=0;entryY=0.5;entryDx=0;entryDy=0;" edge="1" parent="1" target="CEpWDTSw6eDSpH7H5YZw-34">
          <mxGeometry width="50" height="50" relative="1" as="geometry">
            <mxPoint x="1265" y="-815" as="sourcePoint" />
            <mxPoint x="1315" y="-860" as="targetPoint" />
          </mxGeometry>
        </mxCell>
        <mxCell id="CEpWDTSw6eDSpH7H5YZw-68" style="edgeStyle=orthogonalEdgeStyle;rounded=0;orthogonalLoop=1;jettySize=auto;html=1;entryX=0.75;entryY=1;entryDx=0;entryDy=0;" edge="1" parent="1" source="CEpWDTSw6eDSpH7H5YZw-63" target="CEpWDTSw6eDSpH7H5YZw-107">
          <mxGeometry relative="1" as="geometry">
            <mxPoint x="690" y="-1240" as="targetPoint" />
            <Array as="points">
              <mxPoint x="1515" y="-1120" />
              <mxPoint x="680" y="-1120" />
              <mxPoint x="680" y="-1170" />
              <mxPoint x="679" y="-1170" />
            </Array>
          </mxGeometry>
        </mxCell>
        <mxCell id="CEpWDTSw6eDSpH7H5YZw-63" value="MUX" style="shape=trapezoid;perimeter=trapezoidPerimeter;whiteSpace=wrap;html=1;fixedSize=1;" vertex="1" parent="1">
          <mxGeometry x="1480" y="-1080" width="70" height="30" as="geometry" />
        </mxCell>
        <mxCell id="CEpWDTSw6eDSpH7H5YZw-66" value="7&#39;b1111111" style="text;html=1;align=center;verticalAlign=middle;resizable=0;points=[];autosize=1;strokeColor=none;fillColor=none;" vertex="1" parent="1">
          <mxGeometry x="1535" y="-1000" width="80" height="30" as="geometry" />
        </mxCell>
        <mxCell id="CEpWDTSw6eDSpH7H5YZw-67" style="edgeStyle=orthogonalEdgeStyle;rounded=0;orthogonalLoop=1;jettySize=auto;html=1;entryX=0.705;entryY=1.083;entryDx=0;entryDy=0;entryPerimeter=0;" edge="1" parent="1" source="CEpWDTSw6eDSpH7H5YZw-66" target="CEpWDTSw6eDSpH7H5YZw-63">
          <mxGeometry relative="1" as="geometry" />
        </mxCell>
        <mxCell id="CEpWDTSw6eDSpH7H5YZw-69" value="" style="endArrow=classic;html=1;rounded=0;entryX=0;entryY=0.25;entryDx=0;entryDy=0;" edge="1" parent="1" target="CEpWDTSw6eDSpH7H5YZw-63">
          <mxGeometry width="50" height="50" relative="1" as="geometry">
            <mxPoint x="1265" y="-1070" as="sourcePoint" />
            <mxPoint x="1315" y="-1100" as="targetPoint" />
          </mxGeometry>
        </mxCell>
        <mxCell id="CEpWDTSw6eDSpH7H5YZw-70" style="edgeStyle=orthogonalEdgeStyle;rounded=0;orthogonalLoop=1;jettySize=auto;html=1;entryX=0.5;entryY=1;entryDx=0;entryDy=0;" edge="1" parent="1" source="CEpWDTSw6eDSpH7H5YZw-71" target="CEpWDTSw6eDSpH7H5YZw-92">
          <mxGeometry relative="1" as="geometry">
            <mxPoint x="645" y="-800" as="targetPoint" />
          </mxGeometry>
        </mxCell>
        <mxCell id="CEpWDTSw6eDSpH7H5YZw-71" value="counter datapath" style="rounded=0;whiteSpace=wrap;html=1;" vertex="1" parent="1">
          <mxGeometry x="570" y="-650" width="150" height="230" as="geometry" />
        </mxCell>
        <mxCell id="CEpWDTSw6eDSpH7H5YZw-72" style="edgeStyle=orthogonalEdgeStyle;rounded=0;orthogonalLoop=1;jettySize=auto;html=1;exitX=-0.004;exitY=0.739;exitDx=0;exitDy=0;entryX=1;entryY=0.5;entryDx=0;entryDy=0;endArrow=none;endFill=0;startArrow=classic;startFill=1;exitPerimeter=0;" edge="1" parent="1" source="CEpWDTSw6eDSpH7H5YZw-76" target="CEpWDTSw6eDSpH7H5YZw-81">
          <mxGeometry relative="1" as="geometry">
            <Array as="points">
              <mxPoint x="220" y="-480" />
            </Array>
          </mxGeometry>
        </mxCell>
        <mxCell id="CEpWDTSw6eDSpH7H5YZw-73" style="edgeStyle=orthogonalEdgeStyle;rounded=0;orthogonalLoop=1;jettySize=auto;html=1;exitX=1.008;exitY=0.877;exitDx=0;exitDy=0;entryX=-0.001;entryY=0.876;entryDx=0;entryDy=0;endArrow=none;endFill=0;startArrow=classic;startFill=1;exitPerimeter=0;entryPerimeter=0;" edge="1" parent="1" source="CEpWDTSw6eDSpH7H5YZw-76" target="CEpWDTSw6eDSpH7H5YZw-71">
          <mxGeometry relative="1" as="geometry" />
        </mxCell>
        <mxCell id="CEpWDTSw6eDSpH7H5YZw-74" style="edgeStyle=orthogonalEdgeStyle;rounded=0;orthogonalLoop=1;jettySize=auto;html=1;exitX=1.002;exitY=0.383;exitDx=0;exitDy=0;exitPerimeter=0;" edge="1" parent="1">
          <mxGeometry relative="1" as="geometry">
            <mxPoint x="460.30999999999995" y="-482.53" as="sourcePoint" />
            <mxPoint x="570.01" y="-480.6199999999999" as="targetPoint" />
            <Array as="points">
              <mxPoint x="460.01" y="-480.6199999999999" />
            </Array>
          </mxGeometry>
        </mxCell>
        <mxCell id="CEpWDTSw6eDSpH7H5YZw-75" style="edgeStyle=orthogonalEdgeStyle;rounded=0;orthogonalLoop=1;jettySize=auto;html=1;entryX=0.25;entryY=1;entryDx=0;entryDy=0;" edge="1" parent="1" target="CEpWDTSw6eDSpH7H5YZw-111">
          <mxGeometry relative="1" as="geometry">
            <mxPoint x="440" y="-1110" as="targetPoint" />
            <mxPoint x="520" y="-640" as="sourcePoint" />
            <Array as="points">
              <mxPoint x="520" y="-720" />
              <mxPoint x="400" y="-720" />
              <mxPoint x="400" y="-1120" />
              <mxPoint x="398" y="-1120" />
            </Array>
          </mxGeometry>
        </mxCell>
        <mxCell id="CEpWDTSw6eDSpH7H5YZw-76" value="counter controller" style="rounded=0;whiteSpace=wrap;html=1;" vertex="1" parent="1">
          <mxGeometry x="310.01" y="-650" width="150" height="230" as="geometry" />
        </mxCell>
        <mxCell id="CEpWDTSw6eDSpH7H5YZw-77" value="" style="triangle;whiteSpace=wrap;html=1;rotation=-90;" vertex="1" parent="1">
          <mxGeometry x="368.1300000000001" y="-445.6199999999999" width="33.75" height="20" as="geometry" />
        </mxCell>
        <mxCell id="CEpWDTSw6eDSpH7H5YZw-78" value="" style="triangle;whiteSpace=wrap;html=1;rotation=-90;" vertex="1" parent="1">
          <mxGeometry x="628.1199999999999" y="-445.6199999999999" width="33.75" height="20" as="geometry" />
        </mxCell>
        <mxCell id="CEpWDTSw6eDSpH7H5YZw-79" style="edgeStyle=orthogonalEdgeStyle;rounded=0;orthogonalLoop=1;jettySize=auto;html=1;entryX=0.001;entryY=0.264;entryDx=0;entryDy=0;endArrow=classic;endFill=1;entryPerimeter=0;exitX=1.017;exitY=0.662;exitDx=0;exitDy=0;exitPerimeter=0;" edge="1" parent="1" source="CEpWDTSw6eDSpH7H5YZw-80" target="CEpWDTSw6eDSpH7H5YZw-76">
          <mxGeometry relative="1" as="geometry">
            <mxPoint x="220" y="-596.25" as="sourcePoint" />
            <mxPoint x="310" y="-593.75" as="targetPoint" />
            <Array as="points">
              <mxPoint x="220" y="-590" />
            </Array>
          </mxGeometry>
        </mxCell>
        <mxCell id="CEpWDTSw6eDSpH7H5YZw-80" value="start / Key 3" style="text;html=1;strokeColor=none;fillColor=none;align=center;verticalAlign=middle;whiteSpace=wrap;rounded=0;" vertex="1" parent="1">
          <mxGeometry x="140.00000000000006" y="-610" width="80" height="30" as="geometry" />
        </mxCell>
        <mxCell id="CEpWDTSw6eDSpH7H5YZw-81" value="reset / key 0" style="text;html=1;strokeColor=none;fillColor=none;align=center;verticalAlign=middle;whiteSpace=wrap;rounded=0;" vertex="1" parent="1">
          <mxGeometry x="140.00000000000006" y="-493.0899999999999" width="80" height="30" as="geometry" />
        </mxCell>
        <mxCell id="CEpWDTSw6eDSpH7H5YZw-82" value="A_out" style="text;html=1;align=center;verticalAlign=middle;resizable=0;points=[];autosize=1;strokeColor=none;fillColor=none;" vertex="1" parent="1">
          <mxGeometry x="490" y="-450.6199999999999" width="50" height="30" as="geometry" />
        </mxCell>
        <mxCell id="CEpWDTSw6eDSpH7H5YZw-83" value="incr" style="text;html=1;align=center;verticalAlign=middle;resizable=0;points=[];autosize=1;strokeColor=none;fillColor=none;" vertex="1" parent="1">
          <mxGeometry x="495.01" y="-480.6199999999999" width="40" height="30" as="geometry" />
        </mxCell>
        <mxCell id="CEpWDTSw6eDSpH7H5YZw-84" value="load_a" style="text;html=1;align=center;verticalAlign=middle;resizable=0;points=[];autosize=1;strokeColor=none;fillColor=none;" vertex="1" parent="1">
          <mxGeometry x="485.01" y="-517.53" width="60" height="30" as="geometry" />
        </mxCell>
        <mxCell id="CEpWDTSw6eDSpH7H5YZw-85" value="right_shift" style="text;html=1;align=center;verticalAlign=middle;resizable=0;points=[];autosize=1;strokeColor=none;fillColor=none;" vertex="1" parent="1">
          <mxGeometry x="475.01" y="-557.53" width="80" height="30" as="geometry" />
        </mxCell>
        <mxCell id="CEpWDTSw6eDSpH7H5YZw-86" value="clear_result" style="text;html=1;align=center;verticalAlign=middle;resizable=0;points=[];autosize=1;strokeColor=none;fillColor=none;" vertex="1" parent="1">
          <mxGeometry x="470.01" y="-597.53" width="90" height="30" as="geometry" />
        </mxCell>
        <mxCell id="CEpWDTSw6eDSpH7H5YZw-87" value="" style="edgeStyle=none;orthogonalLoop=1;jettySize=auto;html=1;rounded=0;" edge="1" parent="1">
          <mxGeometry width="80" relative="1" as="geometry">
            <mxPoint x="460.01" y="-517.53" as="sourcePoint" />
            <mxPoint x="570.01" y="-517.53" as="targetPoint" />
            <Array as="points" />
          </mxGeometry>
        </mxCell>
        <mxCell id="CEpWDTSw6eDSpH7H5YZw-88" value="" style="edgeStyle=none;orthogonalLoop=1;jettySize=auto;html=1;rounded=0;" edge="1" parent="1">
          <mxGeometry width="80" relative="1" as="geometry">
            <mxPoint x="460.01" y="-557.53" as="sourcePoint" />
            <mxPoint x="570.01" y="-557.53" as="targetPoint" />
            <Array as="points" />
          </mxGeometry>
        </mxCell>
        <mxCell id="CEpWDTSw6eDSpH7H5YZw-89" value="" style="edgeStyle=none;orthogonalLoop=1;jettySize=auto;html=1;rounded=0;" edge="1" parent="1">
          <mxGeometry width="80" relative="1" as="geometry">
            <mxPoint x="460.01" y="-597.53" as="sourcePoint" />
            <mxPoint x="570.01" y="-597.53" as="targetPoint" />
            <Array as="points" />
          </mxGeometry>
        </mxCell>
        <mxCell id="CEpWDTSw6eDSpH7H5YZw-90" value="result" style="text;html=1;align=center;verticalAlign=middle;resizable=0;points=[];autosize=1;strokeColor=none;fillColor=none;" vertex="1" parent="1">
          <mxGeometry x="640" y="-680" width="50" height="30" as="geometry" />
        </mxCell>
        <mxCell id="CEpWDTSw6eDSpH7H5YZw-92" value="seg7" style="whiteSpace=wrap;html=1;" vertex="1" parent="1">
          <mxGeometry x="585" y="-810" width="120" height="60" as="geometry" />
        </mxCell>
        <mxCell id="CEpWDTSw6eDSpH7H5YZw-93" value="hex displays" style="text;html=1;align=center;verticalAlign=middle;resizable=0;points=[];autosize=1;strokeColor=none;fillColor=none;" vertex="1" parent="1">
          <mxGeometry x="614.0600000000001" y="-1350" width="90" height="30" as="geometry" />
        </mxCell>
        <mxCell id="CEpWDTSw6eDSpH7H5YZw-95" value="LEDR[9]" style="text;html=1;align=center;verticalAlign=middle;resizable=0;points=[];autosize=1;strokeColor=none;fillColor=none;" vertex="1" parent="1">
          <mxGeometry x="390.01" y="-1350" width="70" height="30" as="geometry" />
        </mxCell>
        <mxCell id="CEpWDTSw6eDSpH7H5YZw-96" value="count" style="text;html=1;align=center;verticalAlign=middle;resizable=0;points=[];autosize=1;strokeColor=none;fillColor=none;" vertex="1" parent="1">
          <mxGeometry x="635" y="-850" width="50" height="30" as="geometry" />
        </mxCell>
        <mxCell id="CEpWDTSw6eDSpH7H5YZw-97" value="done" style="text;html=1;align=center;verticalAlign=middle;resizable=0;points=[];autosize=1;strokeColor=none;fillColor=none;" vertex="1" parent="1">
          <mxGeometry x="490" y="-640" width="50" height="30" as="geometry" />
        </mxCell>
        <mxCell id="CEpWDTSw6eDSpH7H5YZw-98" value="" style="edgeStyle=none;orthogonalLoop=1;jettySize=auto;html=1;rounded=0;" edge="1" parent="1">
          <mxGeometry width="80" relative="1" as="geometry">
            <mxPoint x="460.01" y="-640" as="sourcePoint" />
            <mxPoint x="570.01" y="-640" as="targetPoint" />
            <Array as="points" />
          </mxGeometry>
        </mxCell>
        <mxCell id="CEpWDTSw6eDSpH7H5YZw-99" value="" style="endArrow=none;html=1;rounded=0;" edge="1" parent="1">
          <mxGeometry width="50" height="50" relative="1" as="geometry">
            <mxPoint x="640" y="-690" as="sourcePoint" />
            <mxPoint x="650" y="-710" as="targetPoint" />
          </mxGeometry>
        </mxCell>
        <mxCell id="CEpWDTSw6eDSpH7H5YZw-100" value="3" style="text;html=1;align=center;verticalAlign=middle;resizable=0;points=[];autosize=1;strokeColor=none;fillColor=none;" vertex="1" parent="1">
          <mxGeometry x="645" y="-710" width="30" height="30" as="geometry" />
        </mxCell>
        <mxCell id="CEpWDTSw6eDSpH7H5YZw-101" value="" style="endArrow=none;html=1;rounded=0;" edge="1" parent="1">
          <mxGeometry width="50" height="50" relative="1" as="geometry">
            <mxPoint x="550" y="-440" as="sourcePoint" />
            <mxPoint x="560" y="-460" as="targetPoint" />
          </mxGeometry>
        </mxCell>
        <mxCell id="CEpWDTSw6eDSpH7H5YZw-102" value="8" style="text;html=1;align=center;verticalAlign=middle;resizable=0;points=[];autosize=1;strokeColor=none;fillColor=none;" vertex="1" parent="1">
          <mxGeometry x="540" y="-445.6199999999999" width="30" height="30" as="geometry" />
        </mxCell>
        <mxCell id="CEpWDTSw6eDSpH7H5YZw-103" style="edgeStyle=orthogonalEdgeStyle;rounded=0;orthogonalLoop=1;jettySize=auto;html=1;entryX=0.25;entryY=1;entryDx=0;entryDy=0;" edge="1" parent="1" source="CEpWDTSw6eDSpH7H5YZw-104" target="CEpWDTSw6eDSpH7H5YZw-71">
          <mxGeometry relative="1" as="geometry" />
        </mxCell>
        <mxCell id="CEpWDTSw6eDSpH7H5YZw-139" style="edgeStyle=orthogonalEdgeStyle;rounded=0;orthogonalLoop=1;jettySize=auto;html=1;" edge="1" parent="1">
          <mxGeometry relative="1" as="geometry">
            <mxPoint x="1025.01" y="-377.5" as="targetPoint" />
            <mxPoint x="225.0100000000001" y="-372.5" as="sourcePoint" />
            <Array as="points">
              <mxPoint x="755.01" y="-372.5" />
              <mxPoint x="755.01" y="-376.5" />
              <mxPoint x="1025.01" y="-376.5" />
            </Array>
          </mxGeometry>
        </mxCell>
        <mxCell id="CEpWDTSw6eDSpH7H5YZw-104" value="A_in / SW[7:0]" style="text;html=1;align=center;verticalAlign=middle;resizable=0;points=[];autosize=1;strokeColor=none;fillColor=none;" vertex="1" parent="1">
          <mxGeometry x="120.00000000000004" y="-390" width="100" height="30" as="geometry" />
        </mxCell>
        <mxCell id="CEpWDTSw6eDSpH7H5YZw-105" value="" style="endArrow=none;html=1;rounded=0;" edge="1" parent="1">
          <mxGeometry width="50" height="50" relative="1" as="geometry">
            <mxPoint x="230" y="-360" as="sourcePoint" />
            <mxPoint x="240" y="-390" as="targetPoint" />
          </mxGeometry>
        </mxCell>
        <mxCell id="CEpWDTSw6eDSpH7H5YZw-106" value="8" style="text;html=1;align=center;verticalAlign=middle;resizable=0;points=[];autosize=1;strokeColor=none;fillColor=none;" vertex="1" parent="1">
          <mxGeometry x="220" y="-360" width="30" height="30" as="geometry" />
        </mxCell>
        <mxCell id="CEpWDTSw6eDSpH7H5YZw-107" value="MUX" style="shape=trapezoid;perimeter=trapezoidPerimeter;whiteSpace=wrap;html=1;fixedSize=1;" vertex="1" parent="1">
          <mxGeometry x="620" y="-1210" width="78.12" height="30" as="geometry" />
        </mxCell>
        <mxCell id="CEpWDTSw6eDSpH7H5YZw-109" style="edgeStyle=orthogonalEdgeStyle;rounded=0;orthogonalLoop=1;jettySize=auto;html=1;entryX=1;entryY=0.5;entryDx=0;entryDy=0;" edge="1" parent="1" source="CEpWDTSw6eDSpH7H5YZw-108" target="CEpWDTSw6eDSpH7H5YZw-107">
          <mxGeometry relative="1" as="geometry" />
        </mxCell>
        <mxCell id="CEpWDTSw6eDSpH7H5YZw-108" value="SW[9]" style="text;html=1;align=center;verticalAlign=middle;resizable=0;points=[];autosize=1;strokeColor=none;fillColor=none;" vertex="1" parent="1">
          <mxGeometry x="740" y="-1210" width="60" height="30" as="geometry" />
        </mxCell>
        <mxCell id="CEpWDTSw6eDSpH7H5YZw-110" style="edgeStyle=orthogonalEdgeStyle;rounded=0;orthogonalLoop=1;jettySize=auto;html=1;entryX=0.509;entryY=1.031;entryDx=0;entryDy=0;entryPerimeter=0;" edge="1" parent="1" source="CEpWDTSw6eDSpH7H5YZw-107" target="CEpWDTSw6eDSpH7H5YZw-93">
          <mxGeometry relative="1" as="geometry" />
        </mxCell>
        <mxCell id="CEpWDTSw6eDSpH7H5YZw-111" value="MUX" style="shape=trapezoid;perimeter=trapezoidPerimeter;whiteSpace=wrap;html=1;fixedSize=1;" vertex="1" parent="1">
          <mxGeometry x="380" y="-1210" width="70" height="30" as="geometry" />
        </mxCell>
        <mxCell id="CEpWDTSw6eDSpH7H5YZw-115" style="edgeStyle=orthogonalEdgeStyle;rounded=0;orthogonalLoop=1;jettySize=auto;html=1;entryX=0.357;entryY=1.085;entryDx=0;entryDy=0;entryPerimeter=0;" edge="1" parent="1" source="CEpWDTSw6eDSpH7H5YZw-111" target="CEpWDTSw6eDSpH7H5YZw-95">
          <mxGeometry relative="1" as="geometry" />
        </mxCell>
        <mxCell id="CEpWDTSw6eDSpH7H5YZw-117" style="edgeStyle=orthogonalEdgeStyle;rounded=0;orthogonalLoop=1;jettySize=auto;html=1;entryX=1;entryY=0.5;entryDx=0;entryDy=0;" edge="1" parent="1" source="CEpWDTSw6eDSpH7H5YZw-116" target="CEpWDTSw6eDSpH7H5YZw-111">
          <mxGeometry relative="1" as="geometry" />
        </mxCell>
        <mxCell id="CEpWDTSw6eDSpH7H5YZw-116" value="SW[9]" style="text;html=1;align=center;verticalAlign=middle;resizable=0;points=[];autosize=1;strokeColor=none;fillColor=none;" vertex="1" parent="1">
          <mxGeometry x="490" y="-1210" width="60" height="30" as="geometry" />
        </mxCell>
        <mxCell id="CEpWDTSw6eDSpH7H5YZw-118" value="" style="curved=1;endArrow=none;html=1;rounded=0;endFill=0;" edge="1" parent="1">
          <mxGeometry width="50" height="50" relative="1" as="geometry">
            <mxPoint x="640" y="-980" as="sourcePoint" />
            <mxPoint x="640" y="-1000" as="targetPoint" />
            <Array as="points">
              <mxPoint x="630" y="-980" />
              <mxPoint x="630" y="-1000" />
            </Array>
          </mxGeometry>
        </mxCell>
        <mxCell id="CEpWDTSw6eDSpH7H5YZw-119" value="" style="endArrow=none;html=1;rounded=0;endFill=0;edgeStyle=orthogonalEdgeStyle;" edge="1" parent="1" source="CEpWDTSw6eDSpH7H5YZw-140">
          <mxGeometry width="50" height="50" relative="1" as="geometry">
            <mxPoint x="640" y="-810" as="sourcePoint" />
            <mxPoint x="640" y="-980" as="targetPoint" />
          </mxGeometry>
        </mxCell>
        <mxCell id="CEpWDTSw6eDSpH7H5YZw-120" value="" style="endArrow=classic;html=1;rounded=0;entryX=0.25;entryY=1;entryDx=0;entryDy=0;" edge="1" parent="1" target="CEpWDTSw6eDSpH7H5YZw-107">
          <mxGeometry width="50" height="50" relative="1" as="geometry">
            <mxPoint x="640" y="-1000" as="sourcePoint" />
            <mxPoint x="690" y="-1050" as="targetPoint" />
          </mxGeometry>
        </mxCell>
        <mxCell id="CEpWDTSw6eDSpH7H5YZw-121" value="MUX" style="shape=trapezoid;perimeter=trapezoidPerimeter;whiteSpace=wrap;html=1;fixedSize=1;" vertex="1" parent="1">
          <mxGeometry x="1239.99" y="-1210" width="78.12" height="30" as="geometry" />
        </mxCell>
        <mxCell id="CEpWDTSw6eDSpH7H5YZw-123" value="" style="curved=1;endArrow=none;html=1;rounded=0;endFill=0;" edge="1" parent="1">
          <mxGeometry width="50" height="50" relative="1" as="geometry">
            <mxPoint x="1264.99" y="-1110" as="sourcePoint" />
            <mxPoint x="1260" y="-1130" as="targetPoint" />
            <Array as="points">
              <mxPoint x="1254.99" y="-1110" />
              <mxPoint x="1254.99" y="-1130" />
            </Array>
          </mxGeometry>
        </mxCell>
        <mxCell id="CEpWDTSw6eDSpH7H5YZw-124" value="" style="endArrow=classic;html=1;rounded=0;entryX=0.25;entryY=1;entryDx=0;entryDy=0;" edge="1" parent="1" target="CEpWDTSw6eDSpH7H5YZw-121">
          <mxGeometry width="50" height="50" relative="1" as="geometry">
            <mxPoint x="1260" y="-1130" as="sourcePoint" />
            <mxPoint x="1310" y="-1180" as="targetPoint" />
          </mxGeometry>
        </mxCell>
        <mxCell id="CEpWDTSw6eDSpH7H5YZw-125" value="0" style="text;html=1;align=center;verticalAlign=middle;resizable=0;points=[];autosize=1;strokeColor=none;fillColor=none;" vertex="1" parent="1">
          <mxGeometry x="1280" y="-1160" width="30" height="30" as="geometry" />
        </mxCell>
        <mxCell id="CEpWDTSw6eDSpH7H5YZw-128" style="edgeStyle=orthogonalEdgeStyle;rounded=0;orthogonalLoop=1;jettySize=auto;html=1;entryX=0.689;entryY=0.922;entryDx=0;entryDy=0;entryPerimeter=0;" edge="1" parent="1" source="CEpWDTSw6eDSpH7H5YZw-125" target="CEpWDTSw6eDSpH7H5YZw-121">
          <mxGeometry relative="1" as="geometry" />
        </mxCell>
        <mxCell id="CEpWDTSw6eDSpH7H5YZw-130" value="LEDR[0]" style="text;html=1;align=center;verticalAlign=middle;resizable=0;points=[];autosize=1;strokeColor=none;fillColor=none;" vertex="1" parent="1">
          <mxGeometry x="1240" y="-1350" width="70" height="30" as="geometry" />
        </mxCell>
        <mxCell id="CEpWDTSw6eDSpH7H5YZw-131" style="edgeStyle=orthogonalEdgeStyle;rounded=0;orthogonalLoop=1;jettySize=auto;html=1;entryX=0.545;entryY=1.217;entryDx=0;entryDy=0;entryPerimeter=0;" edge="1" parent="1" source="CEpWDTSw6eDSpH7H5YZw-121" target="CEpWDTSw6eDSpH7H5YZw-130">
          <mxGeometry relative="1" as="geometry" />
        </mxCell>
        <mxCell id="CEpWDTSw6eDSpH7H5YZw-132" value="&lt;font style=&quot;font-size: 9px;&quot;&gt;1&lt;/font&gt;" style="text;html=1;align=center;verticalAlign=middle;resizable=0;points=[];autosize=1;strokeColor=none;fillColor=none;" vertex="1" parent="1">
          <mxGeometry x="420" y="-1200" width="30" height="30" as="geometry" />
        </mxCell>
        <mxCell id="CEpWDTSw6eDSpH7H5YZw-133" value="&lt;font style=&quot;font-size: 9px;&quot;&gt;1&lt;/font&gt;" style="text;html=1;align=center;verticalAlign=middle;resizable=0;points=[];autosize=1;strokeColor=none;fillColor=none;" vertex="1" parent="1">
          <mxGeometry x="668.12" y="-1200" width="30" height="30" as="geometry" />
        </mxCell>
        <mxCell id="CEpWDTSw6eDSpH7H5YZw-135" value="&lt;font style=&quot;font-size: 9px;&quot;&gt;1&lt;/font&gt;" style="text;html=1;align=center;verticalAlign=middle;resizable=0;points=[];autosize=1;strokeColor=none;fillColor=none;" vertex="1" parent="1">
          <mxGeometry x="1239.99" y="-1200" width="30" height="30" as="geometry" />
        </mxCell>
        <mxCell id="CEpWDTSw6eDSpH7H5YZw-137" value="&lt;font style=&quot;font-size: 9px;&quot;&gt;1&lt;/font&gt;" style="text;html=1;align=center;verticalAlign=middle;resizable=0;points=[];autosize=1;strokeColor=none;fillColor=none;" vertex="1" parent="1">
          <mxGeometry x="1480" y="-1070" width="30" height="30" as="geometry" />
        </mxCell>
        <mxCell id="CEpWDTSw6eDSpH7H5YZw-138" value="&lt;font style=&quot;font-size: 9px;&quot;&gt;1&lt;/font&gt;" style="text;html=1;align=center;verticalAlign=middle;resizable=0;points=[];autosize=1;strokeColor=none;fillColor=none;" vertex="1" parent="1">
          <mxGeometry x="1410" y="-820" width="30" height="30" as="geometry" />
        </mxCell>
        <mxCell id="CEpWDTSw6eDSpH7H5YZw-141" value="" style="endArrow=classic;html=1;rounded=0;endFill=1;entryX=0.75;entryY=1;entryDx=0;entryDy=0;" edge="1" parent="1" target="CEpWDTSw6eDSpH7H5YZw-140">
          <mxGeometry width="50" height="50" relative="1" as="geometry">
            <mxPoint x="640" y="-810" as="sourcePoint" />
            <mxPoint x="640" y="-980" as="targetPoint" />
          </mxGeometry>
        </mxCell>
        <mxCell id="CEpWDTSw6eDSpH7H5YZw-140" value="MUX" style="shape=trapezoid;perimeter=trapezoidPerimeter;whiteSpace=wrap;html=1;fixedSize=1;" vertex="1" parent="1">
          <mxGeometry x="585" y="-930" width="70" height="30" as="geometry" />
        </mxCell>
        <mxCell id="CEpWDTSw6eDSpH7H5YZw-142" value="" style="endArrow=classic;html=1;rounded=0;entryX=0;entryY=0.5;entryDx=0;entryDy=0;edgeStyle=orthogonalEdgeStyle;" edge="1" parent="1" target="CEpWDTSw6eDSpH7H5YZw-140">
          <mxGeometry width="50" height="50" relative="1" as="geometry">
            <mxPoint x="510" y="-640" as="sourcePoint" />
            <mxPoint x="570" y="-690" as="targetPoint" />
            <Array as="points">
              <mxPoint x="520" y="-640" />
              <mxPoint x="520" y="-915" />
            </Array>
          </mxGeometry>
        </mxCell>
        <mxCell id="CEpWDTSw6eDSpH7H5YZw-144" style="edgeStyle=orthogonalEdgeStyle;rounded=0;orthogonalLoop=1;jettySize=auto;html=1;entryX=0.25;entryY=1;entryDx=0;entryDy=0;" edge="1" parent="1" source="CEpWDTSw6eDSpH7H5YZw-143" target="CEpWDTSw6eDSpH7H5YZw-140">
          <mxGeometry relative="1" as="geometry" />
        </mxCell>
        <mxCell id="CEpWDTSw6eDSpH7H5YZw-143" value="7&#39;b1111111" style="text;html=1;align=center;verticalAlign=middle;resizable=0;points=[];autosize=1;strokeColor=none;fillColor=none;" vertex="1" parent="1">
          <mxGeometry x="535.01" y="-860" width="80" height="30" as="geometry" />
        </mxCell>
        <mxCell id="CEpWDTSw6eDSpH7H5YZw-145" value="" style="endArrow=none;html=1;rounded=0;" edge="1" parent="1">
          <mxGeometry width="50" height="50" relative="1" as="geometry">
            <mxPoint x="630" y="-860" as="sourcePoint" />
            <mxPoint x="650" y="-880" as="targetPoint" />
          </mxGeometry>
        </mxCell>
        <mxCell id="CEpWDTSw6eDSpH7H5YZw-146" value="7" style="text;html=1;align=center;verticalAlign=middle;resizable=0;points=[];autosize=1;strokeColor=none;fillColor=none;" vertex="1" parent="1">
          <mxGeometry x="635" y="-882" width="30" height="30" as="geometry" />
        </mxCell>
        <mxCell id="CEpWDTSw6eDSpH7H5YZw-148" value="&lt;font style=&quot;font-size: 9px;&quot;&gt;1&lt;/font&gt;" style="text;html=1;align=center;verticalAlign=middle;resizable=0;points=[];autosize=1;strokeColor=none;fillColor=none;" vertex="1" parent="1">
          <mxGeometry x="620" y="-920" width="30" height="30" as="geometry" />
        </mxCell>
      </root>
    </mxGraphModel>
  </diagram>
</mxfile>
